REM DIRINDEX 1\2\3,1\2\4,1\2\5,1\2\6
REM DIRNAME folder01,folder02,folder03,folder04,folder05,folder06
TITLE ""
FILE "057 057.mp3" MP3
  TRACK 01 AUDIO
    TITLE "0:"
    INDEX 01 00:00:00
  TRACK 02 AUDIO
    TITLE "3:cjc157_2156"
    INDEX 01 00:00:09
  TRACK 03 AUDIO
    TITLE "0:"
    INDEX 01 00:01:50
  TRACK 04 AUDIO
    TITLE "4:cjc157_2157"
    INDEX 01 00:02:22
  TRACK 05 AUDIO
    TITLE "0:"
    INDEX 01 00:03:39
  TRACK 06 AUDIO
    TITLE "5:cjc157_2158"
    INDEX 01 00:04:07
  TRACK 07 AUDIO
    TITLE "0:"
    INDEX 01 00:06:02
  TRACK 08 AUDIO
    TITLE "5:cjc157_2159"
    INDEX 01 00:06:45
  TRACK 09 AUDIO
    TITLE "0:"
    INDEX 01 00:10:31
  TRACK 10 AUDIO
    TITLE "3:cjc157_2160"
    INDEX 01 00:10:68
  TRACK 11 AUDIO
    TITLE "0:"
    INDEX 01 00:12:18
  TRACK 12 AUDIO
    TITLE "4:cjc157_2161"
    INDEX 01 00:12:67
  TRACK 13 AUDIO
    TITLE "0:"
    INDEX 01 00:14:11
  TRACK 14 AUDIO
    TITLE "5:cjc157_2162"
    INDEX 01 00:14:53
  TRACK 15 AUDIO
    TITLE "0:"
    INDEX 01 00:18:19
  TRACK 16 AUDIO
    TITLE "3:cjc157_2163"
    INDEX 01 00:18:64
  TRACK 17 AUDIO
    TITLE "0:"
    INDEX 01 00:20:24
  TRACK 18 AUDIO
    TITLE "4:cjc157_2164"
    INDEX 01 00:20:65
  TRACK 19 AUDIO
    TITLE "0:"
    INDEX 01 00:22:13
  TRACK 20 AUDIO
    TITLE "5:cjc157_2165"
    INDEX 01 00:22:56
  TRACK 21 AUDIO
    TITLE "0:"
    INDEX 01 00:24:59
  TRACK 22 AUDIO
    TITLE "5:cjc157_2166"
    INDEX 01 00:25:27
  TRACK 23 AUDIO
    TITLE "0:"
    INDEX 01 00:27:43
  TRACK 24 AUDIO
    TITLE "3:cjc157_2167"
    INDEX 01 00:28:15
  TRACK 25 AUDIO
    TITLE "0:"
    INDEX 01 00:29:44
  TRACK 26 AUDIO
    TITLE "4:cjc157_2168"
    INDEX 01 00:30:14
  TRACK 27 AUDIO
    TITLE "0:"
    INDEX 01 00:31:45
  TRACK 28 AUDIO
    TITLE "5:cjc157_2169"
    INDEX 01 00:32:13
  TRACK 29 AUDIO
    TITLE "0:"
    INDEX 01 00:34:43
  TRACK 30 AUDIO
    TITLE "5:cjc157_2170"
    INDEX 01 00:35:12
  TRACK 31 AUDIO
    TITLE "0:"
    INDEX 01 00:37:59
  TRACK 32 AUDIO
    TITLE "3:cjc157_2171"
    INDEX 01 00:38:30
  TRACK 33 AUDIO
    TITLE "0:"
    INDEX 01 00:39:62
  TRACK 34 AUDIO
    TITLE "4:cjc157_2172"
    INDEX 01 00:40:38
  TRACK 35 AUDIO
    TITLE "0:"
    INDEX 01 00:41:51
  TRACK 36 AUDIO
    TITLE "5:cjc157_2173"
    INDEX 01 00:42:21
  TRACK 37 AUDIO
    TITLE "0:"
    INDEX 01 00:45:69
  TRACK 38 AUDIO
    TITLE "3:cjc157_2174"
    INDEX 01 00:46:39
  TRACK 39 AUDIO
    TITLE "0:"
    INDEX 01 00:48:12
  TRACK 40 AUDIO
    TITLE "4:cjc157_2175"
    INDEX 01 00:48:57
  TRACK 41 AUDIO
    TITLE "0:"
    INDEX 01 00:49:74
  TRACK 42 AUDIO
    TITLE "5:cjc157_2176"
    INDEX 01 00:50:44
  TRACK 43 AUDIO
    TITLE "0:"
    INDEX 01 00:53:47
  TRACK 44 AUDIO
    TITLE "3:cjc157_2177"
    INDEX 01 00:54:17
  TRACK 45 AUDIO
    TITLE "0:"
    INDEX 01 00:55:57
  TRACK 46 AUDIO
    TITLE "4:cjc157_2178"
    INDEX 01 00:56:25
  TRACK 47 AUDIO
    TITLE "0:"
    INDEX 01 00:57:54
  TRACK 48 AUDIO
    TITLE "5:cjc157_2179"
    INDEX 01 00:58:26
  TRACK 49 AUDIO
    TITLE "0:"
    INDEX 01 01:00:37
  TRACK 50 AUDIO
    TITLE "5:cjc157_2180"
    INDEX 01 01:01:07
  TRACK 51 AUDIO
    TITLE "0:"
    INDEX 01 01:03:59
  TRACK 52 AUDIO
    TITLE "5:cjc157_2181"
    INDEX 01 01:04:25
  TRACK 53 AUDIO
    TITLE "0:"
    INDEX 01 01:07:47
  TRACK 54 AUDIO
    TITLE "3:cjc157_2182"
    INDEX 01 01:08:23
  TRACK 55 AUDIO
    TITLE "0:"
    INDEX 01 01:09:57
  TRACK 56 AUDIO
    TITLE "4:cjc157_2183"
    INDEX 01 01:10:30
  TRACK 57 AUDIO
    TITLE "0:"
    INDEX 01 01:11:62
  TRACK 58 AUDIO
    TITLE "5:cjc157_2184"
    INDEX 01 01:12:34
  TRACK 59 AUDIO
    TITLE "0:"
    INDEX 01 01:15:46
  TRACK 60 AUDIO
    TITLE "3:cjc157_2185"
    INDEX 01 01:16:20
  TRACK 61 AUDIO
    TITLE "0:"
    INDEX 01 01:17:49
  TRACK 62 AUDIO
    TITLE "4:cjc157_2186"
    INDEX 01 01:18:23
  TRACK 63 AUDIO
    TITLE "0:"
    INDEX 01 01:19:38
  TRACK 64 AUDIO
    TITLE "5:cjc157_2187"
    INDEX 01 01:20:06
  TRACK 65 AUDIO
    TITLE "0:"
    INDEX 01 01:23:09
  TRACK 66 AUDIO
    TITLE "3:cjc157_2188"
    INDEX 01 01:23:56
  TRACK 67 AUDIO
    TITLE "0:"
    INDEX 01 01:25:08
  TRACK 68 AUDIO
    TITLE "4:cjc157_2189"
    INDEX 01 01:25:57
  TRACK 69 AUDIO
    TITLE "0:"
    INDEX 01 01:26:68
  TRACK 70 AUDIO
    TITLE "5:cjc157_2190"
    INDEX 01 01:27:42
  TRACK 71 AUDIO
    TITLE "0:"
    INDEX 01 01:30:38
  TRACK 72 AUDIO
    TITLE "5:cjc157_2191"
    INDEX 01 01:31:06
  TRACK 73 AUDIO
    TITLE "0:"
    INDEX 01 01:33:74
  TRACK 74 AUDIO
    TITLE "5:cjc157_2192"
    INDEX 01 01:34:46
  TRACK 75 AUDIO
    TITLE "0:"
    INDEX 01 01:36:56
